<mxfile host="app.diagrams.net" modified="2023-08-04T14:59:51.400Z" agent="Mozilla/5.0 (Windows NT 10.0; Win64; x64) AppleWebKit/537.36 (KHTML, like Gecko) Chrome/115.0.0.0 Safari/537.36" etag="iYD0OxPvE4QgVLm-wrhg" version="21.6.6" type="device">
  <diagram id="C5RBs43oDa-KdzZeNtuy" name="Page-1">
    <mxGraphModel dx="1373" dy="748" grid="1" gridSize="10" guides="1" tooltips="1" connect="1" arrows="1" fold="1" page="1" pageScale="1" pageWidth="827" pageHeight="1169" math="0" shadow="0">
      <root>
        <mxCell id="WIyWlLk6GJQsqaUBKTNV-0" />
        <mxCell id="WIyWlLk6GJQsqaUBKTNV-1" parent="WIyWlLk6GJQsqaUBKTNV-0" />
        <mxCell id="j6vFr5zjLrYr7rvJu_0u-30" style="edgeStyle=orthogonalEdgeStyle;rounded=0;orthogonalLoop=1;jettySize=auto;html=1;" edge="1" parent="WIyWlLk6GJQsqaUBKTNV-1" source="j6vFr5zjLrYr7rvJu_0u-0" target="j6vFr5zjLrYr7rvJu_0u-24">
          <mxGeometry relative="1" as="geometry" />
        </mxCell>
        <mxCell id="j6vFr5zjLrYr7rvJu_0u-0" value="&lt;i&gt;User&lt;/i&gt;" style="swimlane;fontStyle=0;childLayout=stackLayout;horizontal=1;startSize=26;fillColor=none;horizontalStack=0;resizeParent=1;resizeParentMax=0;resizeLast=0;collapsible=1;marginBottom=0;whiteSpace=wrap;html=1;" vertex="1" parent="WIyWlLk6GJQsqaUBKTNV-1">
          <mxGeometry x="330" y="80" width="140" height="110" as="geometry" />
        </mxCell>
        <mxCell id="j6vFr5zjLrYr7rvJu_0u-3" value="+ name: String&lt;br&gt;+ lastName: String&lt;br&gt;+ address: String&lt;br&gt;+ email: String&lt;br&gt;+ password: String" style="text;strokeColor=none;fillColor=none;align=left;verticalAlign=top;spacingLeft=4;spacingRight=4;overflow=hidden;rotatable=0;points=[[0,0.5],[1,0.5]];portConstraint=eastwest;whiteSpace=wrap;html=1;" vertex="1" parent="j6vFr5zjLrYr7rvJu_0u-0">
          <mxGeometry y="26" width="140" height="84" as="geometry" />
        </mxCell>
        <mxCell id="j6vFr5zjLrYr7rvJu_0u-51" style="edgeStyle=orthogonalEdgeStyle;rounded=0;orthogonalLoop=1;jettySize=auto;html=1;" edge="1" parent="WIyWlLk6GJQsqaUBKTNV-1" source="j6vFr5zjLrYr7rvJu_0u-4" target="j6vFr5zjLrYr7rvJu_0u-8">
          <mxGeometry relative="1" as="geometry">
            <Array as="points">
              <mxPoint x="530" y="560" />
              <mxPoint x="530" y="430" />
            </Array>
          </mxGeometry>
        </mxCell>
        <mxCell id="j6vFr5zjLrYr7rvJu_0u-61" style="edgeStyle=orthogonalEdgeStyle;rounded=0;orthogonalLoop=1;jettySize=auto;html=1;" edge="1" parent="WIyWlLk6GJQsqaUBKTNV-1" source="j6vFr5zjLrYr7rvJu_0u-4" target="j6vFr5zjLrYr7rvJu_0u-22">
          <mxGeometry relative="1" as="geometry">
            <Array as="points">
              <mxPoint x="710" y="460" />
              <mxPoint x="660" y="460" />
            </Array>
          </mxGeometry>
        </mxCell>
        <mxCell id="j6vFr5zjLrYr7rvJu_0u-4" value="Team" style="swimlane;fontStyle=0;childLayout=stackLayout;horizontal=1;startSize=26;fillColor=none;horizontalStack=0;resizeParent=1;resizeParentMax=0;resizeLast=0;collapsible=1;marginBottom=0;whiteSpace=wrap;html=1;" vertex="1" parent="WIyWlLk6GJQsqaUBKTNV-1">
          <mxGeometry x="687" y="470" width="140" height="100" as="geometry" />
        </mxCell>
        <mxCell id="j6vFr5zjLrYr7rvJu_0u-7" value="+ name: String&lt;br&gt;" style="text;strokeColor=none;fillColor=none;align=left;verticalAlign=top;spacingLeft=4;spacingRight=4;overflow=hidden;rotatable=0;points=[[0,0.5],[1,0.5]];portConstraint=eastwest;whiteSpace=wrap;html=1;" vertex="1" parent="j6vFr5zjLrYr7rvJu_0u-4">
          <mxGeometry y="26" width="140" height="74" as="geometry" />
        </mxCell>
        <mxCell id="j6vFr5zjLrYr7rvJu_0u-47" style="edgeStyle=orthogonalEdgeStyle;rounded=0;orthogonalLoop=1;jettySize=auto;html=1;" edge="1" parent="WIyWlLk6GJQsqaUBKTNV-1" source="j6vFr5zjLrYr7rvJu_0u-8" target="j6vFr5zjLrYr7rvJu_0u-4">
          <mxGeometry relative="1" as="geometry">
            <Array as="points">
              <mxPoint x="560" y="385" />
              <mxPoint x="560" y="530" />
            </Array>
          </mxGeometry>
        </mxCell>
        <mxCell id="j6vFr5zjLrYr7rvJu_0u-58" style="edgeStyle=orthogonalEdgeStyle;rounded=0;orthogonalLoop=1;jettySize=auto;html=1;" edge="1" parent="WIyWlLk6GJQsqaUBKTNV-1" source="j6vFr5zjLrYr7rvJu_0u-8" target="j6vFr5zjLrYr7rvJu_0u-56">
          <mxGeometry relative="1" as="geometry" />
        </mxCell>
        <mxCell id="j6vFr5zjLrYr7rvJu_0u-8" value="Project" style="swimlane;fontStyle=0;childLayout=stackLayout;horizontal=1;startSize=26;fillColor=none;horizontalStack=0;resizeParent=1;resizeParentMax=0;resizeLast=0;collapsible=1;marginBottom=0;whiteSpace=wrap;html=1;" vertex="1" parent="WIyWlLk6GJQsqaUBKTNV-1">
          <mxGeometry x="330" y="330" width="140" height="110" as="geometry" />
        </mxCell>
        <mxCell id="j6vFr5zjLrYr7rvJu_0u-11" value="+ title: String&lt;br&gt;+ description: String&lt;br&gt;+ startDate: Date&lt;br&gt;+ endDate: Date&lt;br&gt;+ client: String" style="text;strokeColor=none;fillColor=none;align=left;verticalAlign=top;spacingLeft=4;spacingRight=4;overflow=hidden;rotatable=0;points=[[0,0.5],[1,0.5]];portConstraint=eastwest;whiteSpace=wrap;html=1;" vertex="1" parent="j6vFr5zjLrYr7rvJu_0u-8">
          <mxGeometry y="26" width="140" height="84" as="geometry" />
        </mxCell>
        <mxCell id="j6vFr5zjLrYr7rvJu_0u-39" style="edgeStyle=orthogonalEdgeStyle;rounded=0;orthogonalLoop=1;jettySize=auto;html=1;" edge="1" parent="WIyWlLk6GJQsqaUBKTNV-1" source="j6vFr5zjLrYr7rvJu_0u-22" target="j6vFr5zjLrYr7rvJu_0u-8">
          <mxGeometry relative="1" as="geometry" />
        </mxCell>
        <mxCell id="j6vFr5zjLrYr7rvJu_0u-42" style="edgeStyle=orthogonalEdgeStyle;rounded=0;orthogonalLoop=1;jettySize=auto;html=1;" edge="1" parent="WIyWlLk6GJQsqaUBKTNV-1" source="j6vFr5zjLrYr7rvJu_0u-22" target="j6vFr5zjLrYr7rvJu_0u-4">
          <mxGeometry relative="1" as="geometry">
            <Array as="points">
              <mxPoint x="757" y="260" />
            </Array>
          </mxGeometry>
        </mxCell>
        <mxCell id="j6vFr5zjLrYr7rvJu_0u-22" value="Employee" style="swimlane;fontStyle=0;childLayout=stackLayout;horizontal=1;startSize=26;fillColor=none;horizontalStack=0;resizeParent=1;resizeParentMax=0;resizeLast=0;collapsible=1;marginBottom=0;whiteSpace=wrap;html=1;" vertex="1" parent="WIyWlLk6GJQsqaUBKTNV-1">
          <mxGeometry x="540" y="200" width="140" height="80" as="geometry" />
        </mxCell>
        <mxCell id="j6vFr5zjLrYr7rvJu_0u-23" value="+ isLead: Boolean&lt;br&gt;+ position: String&lt;br&gt;" style="text;strokeColor=none;fillColor=none;align=left;verticalAlign=top;spacingLeft=4;spacingRight=4;overflow=hidden;rotatable=0;points=[[0,0.5],[1,0.5]];portConstraint=eastwest;whiteSpace=wrap;html=1;" vertex="1" parent="j6vFr5zjLrYr7rvJu_0u-22">
          <mxGeometry y="26" width="140" height="54" as="geometry" />
        </mxCell>
        <mxCell id="j6vFr5zjLrYr7rvJu_0u-24" value="Manager" style="swimlane;fontStyle=0;childLayout=stackLayout;horizontal=1;startSize=26;fillColor=none;horizontalStack=0;resizeParent=1;resizeParentMax=0;resizeLast=0;collapsible=1;marginBottom=0;whiteSpace=wrap;html=1;" vertex="1" parent="WIyWlLk6GJQsqaUBKTNV-1">
          <mxGeometry x="120" y="200" width="140" height="60" as="geometry" />
        </mxCell>
        <mxCell id="j6vFr5zjLrYr7rvJu_0u-25" value="? predifined?" style="text;strokeColor=none;fillColor=none;align=left;verticalAlign=top;spacingLeft=4;spacingRight=4;overflow=hidden;rotatable=0;points=[[0,0.5],[1,0.5]];portConstraint=eastwest;whiteSpace=wrap;html=1;" vertex="1" parent="j6vFr5zjLrYr7rvJu_0u-24">
          <mxGeometry y="26" width="140" height="34" as="geometry" />
        </mxCell>
        <mxCell id="j6vFr5zjLrYr7rvJu_0u-31" style="edgeStyle=orthogonalEdgeStyle;rounded=0;orthogonalLoop=1;jettySize=auto;html=1;" edge="1" parent="WIyWlLk6GJQsqaUBKTNV-1" source="j6vFr5zjLrYr7rvJu_0u-3" target="j6vFr5zjLrYr7rvJu_0u-22">
          <mxGeometry relative="1" as="geometry" />
        </mxCell>
        <mxCell id="j6vFr5zjLrYr7rvJu_0u-32" value="&lt;i&gt;Seniority&lt;/i&gt;" style="swimlane;fontStyle=0;childLayout=stackLayout;horizontal=1;startSize=26;fillColor=none;horizontalStack=0;resizeParent=1;resizeParentMax=0;resizeLast=0;collapsible=1;marginBottom=0;whiteSpace=wrap;html=1;" vertex="1" parent="WIyWlLk6GJQsqaUBKTNV-1">
          <mxGeometry x="680" y="10" width="140" height="104" as="geometry" />
        </mxCell>
        <mxCell id="j6vFr5zjLrYr7rvJu_0u-33" value="JUNIOR" style="text;strokeColor=none;fillColor=none;align=left;verticalAlign=top;spacingLeft=4;spacingRight=4;overflow=hidden;rotatable=0;points=[[0,0.5],[1,0.5]];portConstraint=eastwest;whiteSpace=wrap;html=1;" vertex="1" parent="j6vFr5zjLrYr7rvJu_0u-32">
          <mxGeometry y="26" width="140" height="26" as="geometry" />
        </mxCell>
        <mxCell id="j6vFr5zjLrYr7rvJu_0u-34" value="MEDIOR" style="text;strokeColor=none;fillColor=none;align=left;verticalAlign=top;spacingLeft=4;spacingRight=4;overflow=hidden;rotatable=0;points=[[0,0.5],[1,0.5]];portConstraint=eastwest;whiteSpace=wrap;html=1;" vertex="1" parent="j6vFr5zjLrYr7rvJu_0u-32">
          <mxGeometry y="52" width="140" height="26" as="geometry" />
        </mxCell>
        <mxCell id="j6vFr5zjLrYr7rvJu_0u-35" value="SENIOR" style="text;strokeColor=none;fillColor=none;align=left;verticalAlign=top;spacingLeft=4;spacingRight=4;overflow=hidden;rotatable=0;points=[[0,0.5],[1,0.5]];portConstraint=eastwest;whiteSpace=wrap;html=1;" vertex="1" parent="j6vFr5zjLrYr7rvJu_0u-32">
          <mxGeometry y="78" width="140" height="26" as="geometry" />
        </mxCell>
        <mxCell id="j6vFr5zjLrYr7rvJu_0u-36" style="edgeStyle=orthogonalEdgeStyle;rounded=0;orthogonalLoop=1;jettySize=auto;html=1;" edge="1" parent="WIyWlLk6GJQsqaUBKTNV-1" source="j6vFr5zjLrYr7rvJu_0u-23" target="j6vFr5zjLrYr7rvJu_0u-32">
          <mxGeometry relative="1" as="geometry">
            <Array as="points">
              <mxPoint x="750" y="230" />
            </Array>
          </mxGeometry>
        </mxCell>
        <mxCell id="j6vFr5zjLrYr7rvJu_0u-37" value="- seniority" style="text;html=1;align=center;verticalAlign=middle;resizable=0;points=[];autosize=1;strokeColor=none;fillColor=none;" vertex="1" parent="WIyWlLk6GJQsqaUBKTNV-1">
          <mxGeometry x="670" y="200" width="80" height="30" as="geometry" />
        </mxCell>
        <mxCell id="j6vFr5zjLrYr7rvJu_0u-38" value="1" style="text;html=1;align=center;verticalAlign=middle;resizable=0;points=[];autosize=1;strokeColor=none;fillColor=none;" vertex="1" parent="WIyWlLk6GJQsqaUBKTNV-1">
          <mxGeometry x="720" y="114" width="30" height="30" as="geometry" />
        </mxCell>
        <mxCell id="j6vFr5zjLrYr7rvJu_0u-40" value="-projects" style="text;html=1;align=center;verticalAlign=middle;resizable=0;points=[];autosize=1;strokeColor=none;fillColor=none;" vertex="1" parent="WIyWlLk6GJQsqaUBKTNV-1">
          <mxGeometry x="470" y="240" width="70" height="30" as="geometry" />
        </mxCell>
        <mxCell id="j6vFr5zjLrYr7rvJu_0u-41" value="*" style="text;html=1;align=center;verticalAlign=middle;resizable=0;points=[];autosize=1;strokeColor=none;fillColor=none;" vertex="1" parent="WIyWlLk6GJQsqaUBKTNV-1">
          <mxGeometry x="395" y="300" width="30" height="30" as="geometry" />
        </mxCell>
        <mxCell id="j6vFr5zjLrYr7rvJu_0u-43" value="-team" style="text;html=1;align=center;verticalAlign=middle;resizable=0;points=[];autosize=1;strokeColor=none;fillColor=none;" vertex="1" parent="WIyWlLk6GJQsqaUBKTNV-1">
          <mxGeometry x="680" y="260" width="50" height="30" as="geometry" />
        </mxCell>
        <mxCell id="j6vFr5zjLrYr7rvJu_0u-44" value="0..1" style="text;html=1;align=center;verticalAlign=middle;resizable=0;points=[];autosize=1;strokeColor=none;fillColor=none;" vertex="1" parent="WIyWlLk6GJQsqaUBKTNV-1">
          <mxGeometry x="760" y="440" width="40" height="30" as="geometry" />
        </mxCell>
        <mxCell id="j6vFr5zjLrYr7rvJu_0u-48" value="-team" style="text;html=1;align=center;verticalAlign=middle;resizable=0;points=[];autosize=1;strokeColor=none;fillColor=none;" vertex="1" parent="WIyWlLk6GJQsqaUBKTNV-1">
          <mxGeometry x="465" y="360" width="50" height="30" as="geometry" />
        </mxCell>
        <mxCell id="j6vFr5zjLrYr7rvJu_0u-49" value="0..1" style="text;html=1;align=center;verticalAlign=middle;resizable=0;points=[];autosize=1;strokeColor=none;fillColor=none;" vertex="1" parent="WIyWlLk6GJQsqaUBKTNV-1">
          <mxGeometry x="647" y="505" width="40" height="30" as="geometry" />
        </mxCell>
        <mxCell id="j6vFr5zjLrYr7rvJu_0u-53" value="-project" style="text;html=1;align=center;verticalAlign=middle;resizable=0;points=[];autosize=1;strokeColor=none;fillColor=none;" vertex="1" parent="WIyWlLk6GJQsqaUBKTNV-1">
          <mxGeometry x="632" y="535" width="60" height="30" as="geometry" />
        </mxCell>
        <mxCell id="j6vFr5zjLrYr7rvJu_0u-55" value="0..1" style="text;html=1;align=center;verticalAlign=middle;resizable=0;points=[];autosize=1;strokeColor=none;fillColor=none;" vertex="1" parent="WIyWlLk6GJQsqaUBKTNV-1">
          <mxGeometry x="470" y="430" width="40" height="30" as="geometry" />
        </mxCell>
        <mxCell id="j6vFr5zjLrYr7rvJu_0u-56" value="&lt;i&gt;ProjectStatus&lt;/i&gt;" style="swimlane;fontStyle=0;childLayout=stackLayout;horizontal=1;startSize=26;fillColor=none;horizontalStack=0;resizeParent=1;resizeParentMax=0;resizeLast=0;collapsible=1;marginBottom=0;whiteSpace=wrap;html=1;" vertex="1" parent="WIyWlLk6GJQsqaUBKTNV-1">
          <mxGeometry x="330" y="508" width="140" height="80" as="geometry" />
        </mxCell>
        <mxCell id="j6vFr5zjLrYr7rvJu_0u-57" value="ON_HOLD&lt;br&gt;IN_PROGRESS&lt;br&gt;COMPLETED" style="text;strokeColor=none;fillColor=none;align=left;verticalAlign=top;spacingLeft=4;spacingRight=4;overflow=hidden;rotatable=0;points=[[0,0.5],[1,0.5]];portConstraint=eastwest;whiteSpace=wrap;html=1;" vertex="1" parent="j6vFr5zjLrYr7rvJu_0u-56">
          <mxGeometry y="26" width="140" height="54" as="geometry" />
        </mxCell>
        <mxCell id="j6vFr5zjLrYr7rvJu_0u-59" value="-status" style="text;html=1;align=center;verticalAlign=middle;resizable=0;points=[];autosize=1;strokeColor=none;fillColor=none;" vertex="1" parent="WIyWlLk6GJQsqaUBKTNV-1">
          <mxGeometry x="398" y="440" width="60" height="30" as="geometry" />
        </mxCell>
        <mxCell id="j6vFr5zjLrYr7rvJu_0u-60" value="1" style="text;html=1;align=center;verticalAlign=middle;resizable=0;points=[];autosize=1;strokeColor=none;fillColor=none;" vertex="1" parent="WIyWlLk6GJQsqaUBKTNV-1">
          <mxGeometry x="398" y="478" width="30" height="30" as="geometry" />
        </mxCell>
        <mxCell id="j6vFr5zjLrYr7rvJu_0u-62" value="0..*" style="text;html=1;align=center;verticalAlign=middle;resizable=0;points=[];autosize=1;strokeColor=none;fillColor=none;" vertex="1" parent="WIyWlLk6GJQsqaUBKTNV-1">
          <mxGeometry x="660" y="280" width="40" height="30" as="geometry" />
        </mxCell>
        <mxCell id="j6vFr5zjLrYr7rvJu_0u-63" value="-members" style="text;html=1;align=center;verticalAlign=middle;resizable=0;points=[];autosize=1;strokeColor=none;fillColor=none;" vertex="1" parent="WIyWlLk6GJQsqaUBKTNV-1">
          <mxGeometry x="650" y="430" width="80" height="30" as="geometry" />
        </mxCell>
        <mxCell id="j6vFr5zjLrYr7rvJu_0u-64" style="edgeStyle=orthogonalEdgeStyle;rounded=0;orthogonalLoop=1;jettySize=auto;html=1;" edge="1" parent="WIyWlLk6GJQsqaUBKTNV-1" source="j6vFr5zjLrYr7rvJu_0u-7" target="j6vFr5zjLrYr7rvJu_0u-22">
          <mxGeometry relative="1" as="geometry">
            <Array as="points">
              <mxPoint x="610" y="500" />
            </Array>
          </mxGeometry>
        </mxCell>
        <mxCell id="j6vFr5zjLrYr7rvJu_0u-65" value="-lead" style="text;html=1;align=center;verticalAlign=middle;resizable=0;points=[];autosize=1;strokeColor=none;fillColor=none;" vertex="1" parent="WIyWlLk6GJQsqaUBKTNV-1">
          <mxGeometry x="642" y="478" width="50" height="30" as="geometry" />
        </mxCell>
        <mxCell id="j6vFr5zjLrYr7rvJu_0u-67" value="1" style="text;html=1;align=center;verticalAlign=middle;resizable=0;points=[];autosize=1;strokeColor=none;fillColor=none;" vertex="1" parent="WIyWlLk6GJQsqaUBKTNV-1">
          <mxGeometry x="610" y="280" width="30" height="30" as="geometry" />
        </mxCell>
      </root>
    </mxGraphModel>
  </diagram>
</mxfile>
